<mxfile host="Electron" agent="Mozilla/5.0 (Windows NT 10.0; Win64; x64) AppleWebKit/537.36 (KHTML, like Gecko) draw.io/28.0.6 Chrome/138.0.7204.100 Electron/37.2.3 Safari/537.36" version="28.0.6">
  <diagram name="Страница — 1" id="t3Z4LVs9Eq6DJi9AmEc1">
    <mxGraphModel dx="1737" dy="1217" grid="1" gridSize="10" guides="1" tooltips="1" connect="1" arrows="1" fold="1" page="1" pageScale="1" pageWidth="827" pageHeight="1169" math="0" shadow="0">
      <root>
        <mxCell id="0" />
        <mxCell id="1" parent="0" />
        <mxCell id="5U1XMarJCXx3pTa_cW4j-2" value="ИИ-команда (3)" style="text;html=1;align=center;verticalAlign=middle;resizable=0;points=[];autosize=1;strokeColor=none;fillColor=none;fontStyle=1;fontSize=16;" vertex="1" parent="1">
          <mxGeometry x="205" y="94" width="140" height="30" as="geometry" />
        </mxCell>
        <mxCell id="5U1XMarJCXx3pTa_cW4j-3" value="Финтех-команда (3)" style="text;html=1;align=center;verticalAlign=middle;resizable=0;points=[];autosize=1;strokeColor=none;fillColor=none;fontStyle=1;fontSize=16;" vertex="1" parent="1">
          <mxGeometry x="175" y="212" width="170" height="30" as="geometry" />
        </mxCell>
        <mxCell id="5U1XMarJCXx3pTa_cW4j-4" value="Команда инженеров (4)" style="text;html=1;align=center;verticalAlign=middle;resizable=0;points=[];autosize=1;strokeColor=none;fillColor=none;fontStyle=1;fontSize=16;" vertex="1" parent="1">
          <mxGeometry x="130" y="612" width="200" height="30" as="geometry" />
        </mxCell>
        <mxCell id="5U1XMarJCXx3pTa_cW4j-5" value="&lt;b&gt;Результаты Q1:&lt;/b&gt;&lt;div&gt;- Определены бизнес-домены&lt;/div&gt;&lt;div&gt;- Определены ответственные&amp;nbsp;&lt;/div&gt;&lt;div&gt;команды за п&lt;span style=&quot;background-color: transparent; color: light-dark(rgb(0, 0, 0), rgb(255, 255, 255));&quot;&gt;родукты&lt;/span&gt;&lt;/div&gt;&lt;div&gt;- Разработаны стандарты&amp;nbsp;&lt;/div&gt;&lt;div&gt;и политики&lt;/div&gt;&lt;div&gt;для продуктов&lt;/div&gt;&lt;div&gt;- Обновлены фреймворки&lt;/div&gt;&lt;div&gt;- Будущая инфраструктура&lt;/div&gt;&lt;div&gt;&amp;nbsp;развернута&lt;/div&gt;&lt;div&gt;- Сформиорван план по&amp;nbsp;&lt;/div&gt;&lt;div&gt;переключению&lt;/div&gt;&lt;div&gt;потоков данных с DWH в DLH&lt;/div&gt;" style="text;html=1;align=left;verticalAlign=middle;resizable=0;points=[];autosize=1;strokeColor=none;fillColor=none;fontSize=15;" vertex="1" parent="1">
          <mxGeometry x="340" y="700" width="230" height="250" as="geometry" />
        </mxCell>
        <mxCell id="5U1XMarJCXx3pTa_cW4j-6" value="&lt;b&gt;Результаты Q2:&lt;/b&gt;&lt;div&gt;- Спроектированы продукты&lt;/div&gt;&lt;div&gt;- Создана ролевая модель доступа&lt;/div&gt;&lt;div&gt;к данным&lt;/div&gt;&lt;div&gt;- Развернута инфрастурктура&lt;/div&gt;" style="text;html=1;align=left;verticalAlign=middle;resizable=0;points=[];autosize=1;strokeColor=none;fillColor=none;fontSize=15;" vertex="1" parent="1">
          <mxGeometry x="590" y="700" width="270" height="100" as="geometry" />
        </mxCell>
        <mxCell id="5U1XMarJCXx3pTa_cW4j-7" value="&lt;b&gt;Результаты Q3:&lt;/b&gt;&lt;div&gt;- Нужные данные перенесены&lt;/div&gt;&lt;div&gt;&amp;nbsp;с DWH&lt;/div&gt;&lt;div&gt;- Подготовлены каталоги для&lt;/div&gt;&lt;div&gt;&amp;nbsp;работы с данными&lt;/div&gt;&lt;div&gt;- Данные доменов начинают&lt;/div&gt;&lt;div&gt;поступать в DHL&lt;/div&gt;" style="text;html=1;align=left;verticalAlign=middle;resizable=0;points=[];autosize=1;strokeColor=none;fillColor=none;fontSize=15;" vertex="1" parent="1">
          <mxGeometry x="840" y="700" width="230" height="140" as="geometry" />
        </mxCell>
        <mxCell id="5U1XMarJCXx3pTa_cW4j-8" value="&lt;b&gt;Результаты Q4:&lt;/b&gt;&lt;div&gt;- Данные доменов публикуются&lt;/div&gt;&lt;div&gt;в развернутый DLH&lt;/div&gt;" style="text;html=1;align=left;verticalAlign=middle;resizable=0;points=[];autosize=1;strokeColor=none;fillColor=none;fontSize=15;" vertex="1" parent="1">
          <mxGeometry x="1090" y="700" width="240" height="70" as="geometry" />
        </mxCell>
        <mxCell id="5U1XMarJCXx3pTa_cW4j-9" value="&lt;b&gt;Аргументация изменений:&lt;/b&gt;&lt;div&gt;1. Этап по разделению бизнеса на домены и деление на команды необходим для определения продуктов данных и закрепления ответственности&lt;/div&gt;&lt;div&gt;&amp;nbsp;за проектирование и поддержку продукта&lt;/div&gt;&lt;div&gt;2. Этап по определению данных необходим командам для определения того, какие данные должны поступать в будущую витрину&lt;/div&gt;&lt;div&gt;3. Разработка стандартов и политик необходимо для закрепления стандартов по разработке продуктов&lt;/div&gt;&lt;div&gt;4. Разработка плана по переключению потоков данных необходима для закрепления процесса по переходу на DHL.&lt;/div&gt;&lt;div&gt;5. Этап по обновлению фреймворков необходим для перехода их на актуальные, поддерживаемые версии&lt;/div&gt;&lt;div&gt;6. Этап по развертыванию инфраструктуры нужен для развертывания сервисов и обеспечения взаимодействий между ними&lt;/div&gt;&lt;div&gt;7. Проектирование и разработка продукта нужны для проектирования схем и интерфейсов каждого продукта в соответствии с принятыми стандартами,&lt;/div&gt;&lt;div&gt;&amp;nbsp;а также для проработки задач по автоматизации обработки данных для получения&lt;/div&gt;&lt;div&gt;в DHL данных как продукта&lt;/div&gt;&lt;div&gt;8. Создание ролевой модели доступа к данным необходимо для понимания того, кому и какие из продуктов будут нужны,&lt;/div&gt;&lt;div&gt;&amp;nbsp;чтобы в последствии ограничивать доступ к ненужным данным&lt;/div&gt;&lt;div&gt;9. Разработка пайплайнов и подготовка инфраструктуры необходимо для внедрения пайплайнов по обработке данных, а также для внедрения новой шины обмена данными&lt;/div&gt;&lt;div&gt;10. Создание каталогов данных и внедрение ролевой модели необходимы для конфигурирования будущей витрины данных&lt;/div&gt;&lt;div&gt;11. Тестирование инфраструктуры позволит убедиться, что инфраструктура настроена корректно и готова к получению данных продуктов&lt;/div&gt;&lt;div&gt;12. Этап по переносу данных с DWH и переключению на DHL необходим для сбора данных продуктов в DHL&lt;/div&gt;&lt;div&gt;13. Этап по мониторингу и поддержке данных необходим для поставки качественного продукта пользователям&lt;/div&gt;" style="text;html=1;align=left;verticalAlign=middle;resizable=0;points=[];autosize=1;strokeColor=none;fillColor=none;fontSize=20;" vertex="1" parent="1">
          <mxGeometry x="14" y="1030" width="1640" height="450" as="geometry" />
        </mxCell>
        <mxCell id="5U1XMarJCXx3pTa_cW4j-11" value="" style="rounded=0;whiteSpace=wrap;html=1;fillColor=#f5f5f5;fontColor=#333333;strokeColor=#666666;" vertex="1" parent="1">
          <mxGeometry x="340" y="52" width="250" height="130" as="geometry" />
        </mxCell>
        <mxCell id="5U1XMarJCXx3pTa_cW4j-12" value="" style="rounded=0;whiteSpace=wrap;html=1;fillColor=#f5f5f5;fontColor=#333333;strokeColor=#666666;" vertex="1" parent="1">
          <mxGeometry x="590" y="52" width="250" height="130" as="geometry" />
        </mxCell>
        <mxCell id="5U1XMarJCXx3pTa_cW4j-13" value="" style="rounded=0;whiteSpace=wrap;html=1;fillColor=#f5f5f5;fontColor=#333333;strokeColor=#666666;" vertex="1" parent="1">
          <mxGeometry x="840" y="52" width="250" height="130" as="geometry" />
        </mxCell>
        <mxCell id="5U1XMarJCXx3pTa_cW4j-14" value="" style="rounded=0;whiteSpace=wrap;html=1;fillColor=#f5f5f5;fontColor=#333333;strokeColor=#666666;" vertex="1" parent="1">
          <mxGeometry x="1090" y="52" width="250" height="130" as="geometry" />
        </mxCell>
        <mxCell id="5U1XMarJCXx3pTa_cW4j-15" value="" style="rounded=0;whiteSpace=wrap;html=1;fillColor=#f5f5f5;fontColor=#333333;strokeColor=#666666;" vertex="1" parent="1">
          <mxGeometry x="340" y="182" width="250" height="130" as="geometry" />
        </mxCell>
        <mxCell id="5U1XMarJCXx3pTa_cW4j-16" value="" style="rounded=0;whiteSpace=wrap;html=1;fillColor=#f5f5f5;fontColor=#333333;strokeColor=#666666;" vertex="1" parent="1">
          <mxGeometry x="590" y="182" width="250" height="130" as="geometry" />
        </mxCell>
        <mxCell id="5U1XMarJCXx3pTa_cW4j-17" value="" style="rounded=0;whiteSpace=wrap;html=1;fillColor=#f5f5f5;fontColor=#333333;strokeColor=#666666;" vertex="1" parent="1">
          <mxGeometry x="840" y="182" width="250" height="130" as="geometry" />
        </mxCell>
        <mxCell id="5U1XMarJCXx3pTa_cW4j-18" value="" style="rounded=0;whiteSpace=wrap;html=1;fillColor=#f5f5f5;fontColor=#333333;strokeColor=#666666;" vertex="1" parent="1">
          <mxGeometry x="1090" y="182" width="250" height="130" as="geometry" />
        </mxCell>
        <mxCell id="5U1XMarJCXx3pTa_cW4j-19" value="" style="rounded=0;whiteSpace=wrap;html=1;fillColor=#f5f5f5;fontColor=#333333;strokeColor=#666666;" vertex="1" parent="1">
          <mxGeometry x="340" y="572" width="250" height="130" as="geometry" />
        </mxCell>
        <mxCell id="5U1XMarJCXx3pTa_cW4j-20" value="" style="rounded=0;whiteSpace=wrap;html=1;fillColor=#f5f5f5;fontColor=#333333;strokeColor=#666666;" vertex="1" parent="1">
          <mxGeometry x="590" y="572" width="250" height="130" as="geometry" />
        </mxCell>
        <mxCell id="5U1XMarJCXx3pTa_cW4j-21" value="" style="rounded=0;whiteSpace=wrap;html=1;fillColor=#f5f5f5;fontColor=#333333;strokeColor=#666666;" vertex="1" parent="1">
          <mxGeometry x="840" y="572" width="250" height="130" as="geometry" />
        </mxCell>
        <mxCell id="5U1XMarJCXx3pTa_cW4j-22" value="" style="rounded=0;whiteSpace=wrap;html=1;fillColor=#f5f5f5;fontColor=#333333;strokeColor=#666666;" vertex="1" parent="1">
          <mxGeometry x="1090" y="572" width="250" height="130" as="geometry" />
        </mxCell>
        <mxCell id="5U1XMarJCXx3pTa_cW4j-23" value="Q1" style="text;html=1;align=center;verticalAlign=middle;resizable=0;points=[];autosize=1;strokeColor=none;fillColor=none;fontStyle=1;fontSize=15;" vertex="1" parent="1">
          <mxGeometry x="440" y="20" width="40" height="30" as="geometry" />
        </mxCell>
        <mxCell id="5U1XMarJCXx3pTa_cW4j-24" value="Q2" style="text;html=1;align=center;verticalAlign=middle;resizable=0;points=[];autosize=1;strokeColor=none;fillColor=none;fontStyle=1;fontSize=15;" vertex="1" parent="1">
          <mxGeometry x="695" y="20" width="40" height="30" as="geometry" />
        </mxCell>
        <mxCell id="5U1XMarJCXx3pTa_cW4j-25" value="Q3" style="text;html=1;align=center;verticalAlign=middle;resizable=0;points=[];autosize=1;strokeColor=none;fillColor=none;fontStyle=1;fontSize=15;" vertex="1" parent="1">
          <mxGeometry x="930" y="20" width="40" height="30" as="geometry" />
        </mxCell>
        <mxCell id="5U1XMarJCXx3pTa_cW4j-26" value="Q4" style="text;html=1;align=center;verticalAlign=middle;resizable=0;points=[];autosize=1;strokeColor=none;fillColor=none;fontStyle=1;fontSize=15;" vertex="1" parent="1">
          <mxGeometry x="1190" y="22" width="40" height="30" as="geometry" />
        </mxCell>
        <mxCell id="5U1XMarJCXx3pTa_cW4j-27" value="Внутренняя&amp;nbsp;&lt;div&gt;ИТ-команда (5)&lt;br&gt;&lt;/div&gt;" style="text;html=1;align=center;verticalAlign=middle;resizable=0;points=[];autosize=1;strokeColor=none;fillColor=none;fontStyle=1;fontSize=16;" vertex="1" parent="1">
          <mxGeometry x="200" y="340" width="140" height="50" as="geometry" />
        </mxCell>
        <mxCell id="5U1XMarJCXx3pTa_cW4j-28" value="" style="rounded=0;whiteSpace=wrap;html=1;fillColor=#f5f5f5;fontColor=#333333;strokeColor=#666666;" vertex="1" parent="1">
          <mxGeometry x="340" y="312" width="250" height="130" as="geometry" />
        </mxCell>
        <mxCell id="5U1XMarJCXx3pTa_cW4j-29" value="" style="rounded=0;whiteSpace=wrap;html=1;fillColor=#f5f5f5;fontColor=#333333;strokeColor=#666666;" vertex="1" parent="1">
          <mxGeometry x="590" y="312" width="250" height="130" as="geometry" />
        </mxCell>
        <mxCell id="5U1XMarJCXx3pTa_cW4j-30" value="" style="rounded=0;whiteSpace=wrap;html=1;fillColor=#f5f5f5;fontColor=#333333;strokeColor=#666666;" vertex="1" parent="1">
          <mxGeometry x="840" y="312" width="250" height="130" as="geometry" />
        </mxCell>
        <mxCell id="5U1XMarJCXx3pTa_cW4j-31" value="" style="rounded=0;whiteSpace=wrap;html=1;fillColor=#f5f5f5;fontColor=#333333;strokeColor=#666666;" vertex="1" parent="1">
          <mxGeometry x="1090" y="312" width="250" height="130" as="geometry" />
        </mxCell>
        <mxCell id="5U1XMarJCXx3pTa_cW4j-32" value="Команда управления&lt;div&gt;данными (3)&lt;/div&gt;" style="text;html=1;align=center;verticalAlign=middle;resizable=0;points=[];autosize=1;strokeColor=none;fillColor=none;fontStyle=1;fontSize=16;" vertex="1" parent="1">
          <mxGeometry x="160" y="470" width="180" height="50" as="geometry" />
        </mxCell>
        <mxCell id="5U1XMarJCXx3pTa_cW4j-33" value="" style="rounded=0;whiteSpace=wrap;html=1;fillColor=#f5f5f5;fontColor=#333333;strokeColor=#666666;" vertex="1" parent="1">
          <mxGeometry x="340" y="442" width="250" height="130" as="geometry" />
        </mxCell>
        <mxCell id="5U1XMarJCXx3pTa_cW4j-34" value="" style="rounded=0;whiteSpace=wrap;html=1;fillColor=#f5f5f5;fontColor=#333333;strokeColor=#666666;" vertex="1" parent="1">
          <mxGeometry x="590" y="442" width="250" height="130" as="geometry" />
        </mxCell>
        <mxCell id="5U1XMarJCXx3pTa_cW4j-35" value="" style="rounded=0;whiteSpace=wrap;html=1;fillColor=#f5f5f5;fontColor=#333333;strokeColor=#666666;" vertex="1" parent="1">
          <mxGeometry x="840" y="442" width="250" height="130" as="geometry" />
        </mxCell>
        <mxCell id="5U1XMarJCXx3pTa_cW4j-36" value="" style="rounded=0;whiteSpace=wrap;html=1;fillColor=#f5f5f5;fontColor=#333333;strokeColor=#666666;" vertex="1" parent="1">
          <mxGeometry x="1090" y="442" width="250" height="130" as="geometry" />
        </mxCell>
        <mxCell id="5U1XMarJCXx3pTa_cW4j-37" value="Разделение бизнеса на домены и деление на команды,&lt;div&gt;закрепление ответственных&lt;/div&gt;" style="rounded=0;whiteSpace=wrap;html=1;fillColor=#f8cecc;strokeColor=#b85450;" vertex="1" parent="1">
          <mxGeometry x="340" y="442" width="110" height="90" as="geometry" />
        </mxCell>
        <mxCell id="5U1XMarJCXx3pTa_cW4j-47" value="Разработка стандартов и политик" style="rounded=0;whiteSpace=wrap;html=1;fillColor=#f8cecc;strokeColor=#b85450;" vertex="1" parent="1">
          <mxGeometry x="450" y="442" width="140" height="50" as="geometry" />
        </mxCell>
        <mxCell id="5U1XMarJCXx3pTa_cW4j-48" value="Определение данных" style="rounded=0;whiteSpace=wrap;html=1;fillColor=#f8cecc;strokeColor=#b85450;" vertex="1" parent="1">
          <mxGeometry x="450" y="52" width="100" height="50" as="geometry" />
        </mxCell>
        <mxCell id="5U1XMarJCXx3pTa_cW4j-49" value="Определение данных" style="rounded=0;whiteSpace=wrap;html=1;fillColor=#f8cecc;strokeColor=#b85450;" vertex="1" parent="1">
          <mxGeometry x="450" y="182" width="90" height="50" as="geometry" />
        </mxCell>
        <mxCell id="5U1XMarJCXx3pTa_cW4j-50" value="Определение данных" style="rounded=0;whiteSpace=wrap;html=1;fillColor=#f8cecc;strokeColor=#b85450;" vertex="1" parent="1">
          <mxGeometry x="450" y="312" width="90" height="50" as="geometry" />
        </mxCell>
        <mxCell id="5U1XMarJCXx3pTa_cW4j-57" value="Проектирование и разработка продукта" style="rounded=0;whiteSpace=wrap;html=1;fillColor=#f8cecc;strokeColor=#b85450;" vertex="1" parent="1">
          <mxGeometry x="590" y="52" width="180" height="50" as="geometry" />
        </mxCell>
        <mxCell id="5U1XMarJCXx3pTa_cW4j-58" value="Проектирование и разработка продукта" style="rounded=0;whiteSpace=wrap;html=1;fillColor=#f8cecc;strokeColor=#b85450;" vertex="1" parent="1">
          <mxGeometry x="590" y="182" width="180" height="50" as="geometry" />
        </mxCell>
        <mxCell id="5U1XMarJCXx3pTa_cW4j-59" value="Проектирование и разработка продукта" style="rounded=0;whiteSpace=wrap;html=1;fillColor=#f8cecc;strokeColor=#b85450;" vertex="1" parent="1">
          <mxGeometry x="590" y="312" width="180" height="50" as="geometry" />
        </mxCell>
        <mxCell id="5U1XMarJCXx3pTa_cW4j-61" value="Обновление фреймворков" style="rounded=0;whiteSpace=wrap;html=1;fillColor=#f8cecc;strokeColor=#b85450;" vertex="1" parent="1">
          <mxGeometry x="340" y="572" width="130" height="48" as="geometry" />
        </mxCell>
        <mxCell id="5U1XMarJCXx3pTa_cW4j-62" value="Развертывание инфраструктуры" style="rounded=0;whiteSpace=wrap;html=1;fillColor=#f8cecc;strokeColor=#b85450;" vertex="1" parent="1">
          <mxGeometry x="470" y="620" width="120" height="40" as="geometry" />
        </mxCell>
        <mxCell id="5U1XMarJCXx3pTa_cW4j-63" value="Перенос данных с&lt;div&gt;DWH&lt;/div&gt;&lt;div&gt;и переключение&lt;/div&gt;&lt;div&gt;на DHL&lt;/div&gt;" style="rounded=0;whiteSpace=wrap;html=1;fillColor=#f8cecc;strokeColor=#b85450;" vertex="1" parent="1">
          <mxGeometry x="970" y="638" width="120" height="62" as="geometry" />
        </mxCell>
        <mxCell id="5U1XMarJCXx3pTa_cW4j-66" value="Разработка пайплайнов&lt;div&gt;и подготовка инфрастурктуры&lt;/div&gt;" style="rounded=0;whiteSpace=wrap;html=1;fillColor=#f8cecc;strokeColor=#b85450;" vertex="1" parent="1">
          <mxGeometry x="650" y="662" width="190" height="40" as="geometry" />
        </mxCell>
        <mxCell id="5U1XMarJCXx3pTa_cW4j-67" value="Публикация&lt;div&gt;данных,&lt;/div&gt;&lt;div&gt;мониторинг и поддержка&lt;/div&gt;" style="rounded=0;whiteSpace=wrap;html=1;fillColor=#f8cecc;strokeColor=#b85450;" vertex="1" parent="1">
          <mxGeometry x="1090" y="52" width="250" height="42" as="geometry" />
        </mxCell>
        <mxCell id="5U1XMarJCXx3pTa_cW4j-68" value="Публикация&lt;div&gt;данных,&lt;/div&gt;&lt;div&gt;мониторинг и поддержка&lt;/div&gt;" style="rounded=0;whiteSpace=wrap;html=1;fillColor=#f8cecc;strokeColor=#b85450;" vertex="1" parent="1">
          <mxGeometry x="1090" y="182" width="250" height="42" as="geometry" />
        </mxCell>
        <mxCell id="5U1XMarJCXx3pTa_cW4j-69" value="Публикация&lt;div&gt;данных,&lt;/div&gt;&lt;div&gt;мониторинг и поддержка&lt;/div&gt;" style="rounded=0;whiteSpace=wrap;html=1;fillColor=#f8cecc;strokeColor=#b85450;" vertex="1" parent="1">
          <mxGeometry x="1090" y="312" width="250" height="42" as="geometry" />
        </mxCell>
        <mxCell id="5U1XMarJCXx3pTa_cW4j-70" value="Создание каталогов&lt;div&gt;данных и&amp;nbsp;&lt;/div&gt;&lt;div&gt;внедрение ролевой&lt;/div&gt;&lt;div&gt;модели&lt;/div&gt;" style="rounded=0;whiteSpace=wrap;html=1;fillColor=#f8cecc;strokeColor=#b85450;" vertex="1" parent="1">
          <mxGeometry x="840" y="442" width="130" height="58" as="geometry" />
        </mxCell>
        <mxCell id="5U1XMarJCXx3pTa_cW4j-72" value="Создание ролевой модели доступа к данным" style="rounded=0;whiteSpace=wrap;html=1;fillColor=#f8cecc;strokeColor=#b85450;" vertex="1" parent="1">
          <mxGeometry x="760" y="494" width="80" height="78" as="geometry" />
        </mxCell>
        <mxCell id="5U1XMarJCXx3pTa_cW4j-75" value="Разработка&lt;div&gt;плана по переключению&lt;/div&gt;&lt;div&gt;с DWH в DLH&lt;/div&gt;" style="rounded=0;whiteSpace=wrap;html=1;fillColor=#f8cecc;strokeColor=#b85450;" vertex="1" parent="1">
          <mxGeometry x="340" y="620" width="100" height="60" as="geometry" />
        </mxCell>
        <mxCell id="5U1XMarJCXx3pTa_cW4j-76" value="Тестирование&lt;div&gt;инрастурктуры&lt;/div&gt;" style="rounded=0;whiteSpace=wrap;html=1;fillColor=#f8cecc;strokeColor=#b85450;" vertex="1" parent="1">
          <mxGeometry x="840" y="598" width="110" height="40" as="geometry" />
        </mxCell>
      </root>
    </mxGraphModel>
  </diagram>
</mxfile>
